<svg xmlns="http://www.w3.org/2000/svg" xmlns:xlink="http://www.w3.org/1999/xlink" width="140.082" height="49.496" viewBox="0 0 140.082 49.496"><defs><style>.a{fill:none;}.b{clip-path:url(#a);}.c{fill:#ed1d24;}.d{fill:#21afb4;}</style><clipPath id="a"><rect class="a" width="140.082" height="49.496"/></clipPath></defs><g class="b"><path class="c" d="M43.442,70.618c0-5.757-5.955-7.8-11.053-7.8-3.586,0-11.987.857-12.459,8.814a.61.61,0,0,0,.166.455.6.6,0,0,0,.427.173h6.064a.589.589,0,0,0,.589-.539c.254-2.82,2.8-3.4,4.883-3.4,3.011,0,4.537.934,4.537,2.764,0,1.925-1.463,2.193-4.5,2.567-.786.1-1.6.2-2.412.353-3.73.42-10.647,1.209-10.647,8.31,0,5.151,4.869,7.844,9.674,7.844,2.658,0,6.346-.783,8.782-2.983A8.676,8.676,0,0,1,43.1,84.932a.437.437,0,0,0,.353-.159.451.451,0,0,0,.088-.353,3.412,3.412,0,0,1-.063-.779ZM30.711,84.66c-2.715,0-4.21-.892-4.446-2.634-.317-2.288,1.985-3.173,3.977-3.487.635-.109,1.3-.19,1.946-.268l.109-.018a15.123,15.123,0,0,0,3.963-.8v3.1c0,3.018-3.321,4.107-5.549,4.107M17.275,63.588V77.366c0,5.8-1.354,12.449-11.878,12.449H.462A.43.43,0,0,1,0,89.381v-5.7a.43.43,0,0,1,.434-.434H5.859c3.526,0,4.2-2.115,4.2-6.025V63.588a.6.6,0,0,1,.6-.589h5.993a.6.6,0,0,1,.624.589m67.734,7.672V89.212a.6.6,0,0,1-.6.592H78.356a.6.6,0,0,1-.6-.592V72.976c0-1.283-.3-4.647-4.231-4.647-3.681,0-4.076,3.014-4.076,4.647V89.212a.6.6,0,0,1-.6.592H62.865a.6.6,0,0,1-.592-.592V72.976c0-1.646-.395-4.647-4.065-4.647-3.938,0-4.231,3.363-4.231,4.647V89.212a.6.6,0,0,1-.6.592H47.3a.6.6,0,0,1-.6-.592V71.259c0-5.454,4.724-8.437,11.493-8.437a12.34,12.34,0,0,1,6.05,1.41,3.887,3.887,0,0,0,1.608.557,3.887,3.887,0,0,0,1.608-.557,12.34,12.34,0,0,1,6.05-1.41c6.769,0,11.493,2.983,11.493,8.437m26.442-.642c0-5.757-5.951-7.8-11.049-7.8-3.589,0-11.987.857-12.459,8.814a.575.575,0,0,0,.169.469.6.6,0,0,0,.423.173h6.057a.592.592,0,0,0,.6-.554c.25-2.82,2.789-3.4,4.879-3.4,3.014,0,4.541.934,4.541,2.764,0,1.925-1.463,2.193-4.5,2.567-.786.1-1.6.2-2.415.353-3.727.427-10.658,1.223-10.658,8.317,0,5.151,4.865,7.844,9.671,7.844,2.662,0,6.371-.783,8.786-2.983a8.669,8.669,0,0,1,5.6-2.253.444.444,0,0,0,.353-.159.437.437,0,0,0,.081-.353,3.924,3.924,0,0,1-.06-.779ZM98.716,84.66c-2.711,0-4.206-.892-4.449-2.634-.314-2.288,1.985-3.173,3.98-3.487.635-.109,1.3-.19,1.95-.268l.109-.018a15.1,15.1,0,0,0,3.959-.8v3.1c0,3.018-3.318,4.107-5.549,4.107m33.141-21.238v5.7a.43.43,0,0,1-.434.423h-5.429c-3.526,0-4.2,2.115-4.2,6.036V89.212a.6.6,0,0,1-.6.592H115.2a.592.592,0,0,1-.592-.592V75.437c0-5.8,1.347-12.449,11.871-12.449h4.936a.434.434,0,0,1,.441.434" transform="translate(0 -40.671)"/><path class="d" d="M59.546.416V4.425a.307.307,0,0,1-.307.307h-3.8c-2.489,0-2.958,1.491-2.958,4.231v9.614a.42.42,0,0,1-.42.42H47.827a.427.427,0,0,1-.42-.42v-9.7c.007-4.079.952-8.765,8.37-8.765h3.476a.307.307,0,0,1,.307.3M40.631,12.981a.423.423,0,0,1,.416-.381H45.31a.437.437,0,0,1,.3.127.427.427,0,0,1,.12.331c-.353,5.588-6.247,6.194-8.768,6.194-2.369,0-5.013-.635-6.533-2.214-1.833-1.742-2.168-4.382-2.168-6.815v-1.2c0-2.426.335-5.066,2.168-6.811C31.948.631,34.592,0,36.961,0c2.521,0,8.43.6,8.768,6.191a.427.427,0,0,1-.12.331.42.42,0,0,1-.3.123H41.047a.42.42,0,0,1-.416-.381c-.18-1.978-1.967-2.387-3.441-2.387-1.565,0-2.387.289-2.976,1.058a8.646,8.646,0,0,0-.867,4.174v1.012a8.841,8.841,0,0,0,.867,4.174c.575.783,1.41,1.058,2.976,1.058,1.474,0,3.261-.412,3.441-2.394M103.387.511a.416.416,0,0,0-.409-.4H98.708a.42.42,0,0,0-.42.42V18.576a.423.423,0,0,0,.42.42h4.259a.43.43,0,0,0,.423-.42ZM96.23,8.881v1.343c0,4.086-.948,8.772-8.363,8.772H80.21a.42.42,0,0,1-.42-.42V.532a.416.416,0,0,1,.42-.42h7.658c7.4,0,8.363,4.686,8.363,8.768m-5.063.1C91.167,6.223,90.691,4,88.209,4H84.9V15.1h3.314c2.468,0,2.958-2.218,2.958-4.968ZM77.77,7.918v3.06a.5.5,0,0,1-.116.331.444.444,0,0,1-.3.127H65.367a5.519,5.519,0,0,0,.515,2.856c.578.772,1.763,1.058,3.342,1.058,1.273,0,3.215-.353,3.363-2a.43.43,0,0,1,.42-.381h4.259a.448.448,0,0,1,.3.123.388.388,0,0,1,.109.331c-.31,5.288-6.346,5.8-8.694,5.8s-5.01-.635-6.529-2.214c-1.837-1.742-2.175-4.382-2.175-6.815V9.022c0-2.426.353-5.066,2.175-6.811C64,.631,66.643,0,69.005,0c2.528,0,8.433.6,8.768,6.191V7.933m-11.881-3a5.29,5.29,0,0,0-.511,2.679h7.284V6.346c0-1.981-1.971-2.468-3.43-2.468-1.572,0-2.764.289-3.342,1.058" transform="translate(-18.297)"/><path class="c" d="M379.57,67v-.018a3.134,3.134,0,0,1,6.265,0h0A3.134,3.134,0,0,1,379.57,67m5.934-.018h0a2.82,2.82,0,1,0-5.606,0V67a2.82,2.82,0,1,0,5.606-.018m-4.065-1.728h1.456a1.364,1.364,0,0,1,.994.353.917.917,0,0,1,.268.684h0a.977.977,0,0,1-.762.987l.881,1.237h-.744l-.8-1.135h-.68v1.135h-.624Zm1.435,1.6c.409,0,.652-.2.652-.511v-.018c0-.328-.243-.511-.652-.511h-.811v1.04Z" transform="translate(-245.749 -41.337)"/></g></svg>